<?xml version="1.0" encoding="utf-8"?>
<!-- Generated by IcoMoon.io -->
<!DOCTYPE svg PUBLIC "-//W3C//DTD SVG 1.1//EN" "http://www.w3.org/Graphics/SVG/1.1/DTD/svg11.dtd">
<svg version="1.1" xmlns="http://www.w3.org/2000/svg" xmlns:xlink="http://www.w3.org/1999/xlink" width="32" height="32" viewBox="0 0 32 32">
<path d="M6.667 4v1.663c0 1.29 1.043 2.337 2.334 2.337h0.666c1.29 0 2.334-1.044 2.334-2.337v-1.663h6.667v1.663c0 1.29 1.043 2.337 2.334 2.337h0.666c1.29 0 2.334-1.044 2.334-2.337v-1.663h4.495c0.462 0 0.838 0.387 0.838 0.865v23.604c0 0.477-0.375 0.865-0.838 0.865h-26.324c-0.463 0-0.838-0.387-0.838-0.865v-23.604c0-0.477 0.375-0.865 0.838-0.865h4.495zM2.667 24v3.502c0 0.275 0.256 0.498 0.573 0.498h3.427v-4h-4zM8 24v4h4v-4h-4zM13.333 24v4h4v-4h-4zM18.667 24v4h4v-4h-4zM24 24v4h3.427c0.317 0 0.573-0.224 0.573-0.498v-3.502h-4zM2.667 18.667v4h4v-4h-4zM8 18.667v4h4v-4h-4zM18.667 18.667v4h4v-4h-4zM24 18.667v4h4v-4h-4zM2.667 13.333v4h4v-4h-4zM8 13.333v4h4v-4h-4zM13.333 13.333v4h4v-4h-4zM18.667 13.333v4h4v-4h-4zM24 13.333v4h4v-4h-4zM9.001 1.333c-0.553 0-1.001 0.446-1.001 1.003v3.327c0 0.554 0.446 1.003 1.001 1.003h0.666c0.553 0 1.001-0.446 1.001-1.003v-3.327c0-0.554-0.446-1.003-1.001-1.003h-0.666zM21.333 1.333c-0.736 0-1.333 0.596-1.333 1.332v2.669c0 0.736 0.598 1.332 1.333 1.332 0.736 0 1.333-0.596 1.333-1.332v-2.669c0-0.736-0.598-1.332-1.333-1.332v0z"></path>
</svg>
