<?xml version="1.0" encoding="utf-8"?>
<!-- Generated by IcoMoon.io -->
<!DOCTYPE svg PUBLIC "-//W3C//DTD SVG 1.1//EN" "http://www.w3.org/Graphics/SVG/1.1/DTD/svg11.dtd">
<svg version="1.1" xmlns="http://www.w3.org/2000/svg" xmlns:xlink="http://www.w3.org/1999/xlink" width="32" height="32" viewBox="0 0 32 32">
<path d="M11.671 23.372v-9.759h-3.016v9.759h3.016zM11.671 10.154c-0.018-0.873-0.6-1.538-1.546-1.538s-1.564 0.665-1.564 1.538c0 0.854 0.6 1.539 1.528 1.539h0.018c0.964 0 1.564-0.684 1.564-1.539zM16.592 23.372v-5.56c0-0.298 0.021-0.595 0.109-0.807 0.239-0.595 0.784-1.211 1.698-1.211 1.198 0 1.949 0.68 1.949 2.018v5.56h3.037v-5.709c0-3.058-1.633-4.481-3.81-4.481-1.785 0-2.569 0.998-3.004 1.678l0.022-1.305h-3.031c0.044 0.934 0 9.818 0 9.818h3.032z"></path>
</svg>
