<?xml version="1.0" encoding="utf-8"?>
<!-- Generated by IcoMoon.io -->
<!DOCTYPE svg PUBLIC "-//W3C//DTD SVG 1.1//EN" "http://www.w3.org/Graphics/SVG/1.1/DTD/svg11.dtd">
<svg version="1.1" xmlns="http://www.w3.org/2000/svg" xmlns:xlink="http://www.w3.org/1999/xlink" width="32" height="32" viewBox="0 0 32 32">
<path d="M21.894 9.833c-0.645-0.733-1.564-1.2-2.58-1.217-1.952-0.033-3.535 1.617-3.535 3.684 0 0.293 0.031 0.579 0.092 0.854-2.938-0.191-5.543-1.72-7.286-4.027-0.304 0.553-0.479 1.198-0.479 1.89 0 1.31 0.624 2.472 1.573 3.159-0.579-0.026-1.125-0.201-1.601-0.489-0 0.016-0 0.031-0 0.047 0 1.829 1.219 3.364 2.836 3.721-0.297 0.084-0.609 0.128-0.931 0.126-0.228-0.002-0.449-0.027-0.665-0.072 0.45 1.5 1.755 2.595 3.302 2.631-1.21 1.004-2.734 1.602-4.39 1.599-0.285-0.001-0.567-0.019-0.843-0.055 1.564 1.073 3.423 1.698 5.419 1.699 6.502 0.002 10.058-5.657 10.058-10.565 0-0.161-0.004-0.321-0.010-0.481 0.691-0.515 1.29-1.16 1.764-1.897-0.634 0.286-1.315 0.476-2.030 0.555 0.73-0.449 1.29-1.168 1.554-2.030-0.683 0.414-1.44 0.711-2.245 0.866z"></path>
</svg>
