<svg id="Layer_1" data-name="Layer 1" xmlns="http://www.w3.org/2000/svg" viewBox="0 0 90 90"><defs><style>.cls-1{fill:#fff;}</style></defs><title>skill-list-check</title><path class="cls-1" d="M50,5A45.05,45.05,0,1,0,88.06,26l6-5.91a3.14,3.14,0,0,0,.65-3.44A3.08,3.08,0,0,0,91.69,15a3,3,0,0,0-1.78.88L84.5,21.16A44.94,44.94,0,0,0,50,5Zm0,6A38.89,38.89,0,0,1,80.22,25.34L45,59.84l-14.91-14a3,3,0,1,0-4.12,4.34l17,16a3.11,3.11,0,0,0,4.16,0L83.69,30.31A39,39,0,1,1,50,11Z" transform="translate(-5 -5)"/></svg>