<svg xmlns="http://www.w3.org/2000/svg" style="width:0; height:0; visibility:hidden;">
    <symbol id="calendar" viewBox="0 0 32 32">
       <path d="M6.667 4v1.663c0 1.29 1.043 2.337 2.334 2.337h0.666c1.29 0 2.334-1.044 2.334-2.337v-1.663h6.667v1.663c0 1.29 1.043 2.337 2.334 2.337h0.666c1.29 0 2.334-1.044 2.334-2.337v-1.663h4.495c0.462 0 0.838 0.387 0.838 0.865v23.604c0 0.477-0.375 0.865-0.838 0.865h-26.324c-0.463 0-0.838-0.387-0.838-0.865v-23.604c0-0.477 0.375-0.865 0.838-0.865h4.495zM2.667 24v3.502c0 0.275 0.256 0.498 0.573 0.498h3.427v-4h-4zM8 24v4h4v-4h-4zM13.333 24v4h4v-4h-4zM18.667 24v4h4v-4h-4zM24 24v4h3.427c0.317 0 0.573-0.224 0.573-0.498v-3.502h-4zM2.667 18.667v4h4v-4h-4zM8 18.667v4h4v-4h-4zM18.667 18.667v4h4v-4h-4zM24 18.667v4h4v-4h-4zM2.667 13.333v4h4v-4h-4zM8 13.333v4h4v-4h-4zM13.333 13.333v4h4v-4h-4zM18.667 13.333v4h4v-4h-4zM24 13.333v4h4v-4h-4zM9.001 1.333c-0.553 0-1.001 0.446-1.001 1.003v3.327c0 0.554 0.446 1.003 1.001 1.003h0.666c0.553 0 1.001-0.446 1.001-1.003v-3.327c0-0.554-0.446-1.003-1.001-1.003h-0.666zM21.333 1.333c-0.736 0-1.333 0.596-1.333 1.332v2.669c0 0.736 0.598 1.332 1.333 1.332 0.736 0 1.333-0.596 1.333-1.332v-2.669c0-0.736-0.598-1.332-1.333-1.332v0z"/> 
    </symbol>
    <symbol id="chevronleft" viewBox="0 0 32 32">
      <path clip-rule="evenodd" d="M11.262 16.714l9.002 9c.395.393 1.035.393 1.43 0 .396-.395.396-1.035 0-1.43L13.408 16l8.287-8.285c.395-.394.395-1.034 0-1.43-.395-.393-1.036-.393-1.43 0l-9.003 9c-.388.39-.388 1.04.002 1.43z"/>
    </symbol>
    <symbol id="chevronright" viewBox="0 0 32 32">
       <path d="M21.698 15.286l-9.002-8.999c-0.395-0.394-1.035-0.394-1.431 0s-0.395 1.034 0 1.428l8.288 8.285-8.287 8.285c-0.395 0.394-0.395 1.034 0 1.429 0.395 0.394 1.036 0.394 1.431 0l9.002-8.999c0.389-0.39 0.389-1.040-0.001-1.429z"/> 
    </symbol>
    <symbol id="linkedin" viewBox="0 0 32 32">
       <path d="M11.671 23.372v-9.759h-3.016v9.759h3.016zM11.671 10.154c-0.018-0.873-0.6-1.538-1.546-1.538s-1.564 0.665-1.564 1.538c0 0.854 0.6 1.539 1.528 1.539h0.018c0.964 0 1.564-0.684 1.564-1.539zM16.592 23.372v-5.56c0-0.298 0.021-0.595 0.109-0.807 0.239-0.595 0.784-1.211 1.698-1.211 1.198 0 1.949 0.68 1.949 2.018v5.56h3.037v-5.709c0-3.058-1.633-4.481-3.81-4.481-1.785 0-2.569 0.998-3.004 1.678l0.022-1.305h-3.031c0.044 0.934 0 9.818 0 9.818h3.032z"/> 
    </symbol>
    <symbol id="twitter" viewBox="0 0 32 32">
       <path d="M21.894 9.833c-0.645-0.733-1.564-1.2-2.58-1.217-1.952-0.033-3.535 1.617-3.535 3.684 0 0.293 0.031 0.579 0.092 0.854-2.938-0.191-5.543-1.72-7.286-4.027-0.304 0.553-0.479 1.198-0.479 1.89 0 1.31 0.624 2.472 1.573 3.159-0.579-0.026-1.125-0.201-1.601-0.489-0 0.016-0 0.031-0 0.047 0 1.829 1.219 3.364 2.836 3.721-0.297 0.084-0.609 0.128-0.931 0.126-0.228-0.002-0.449-0.027-0.665-0.072 0.45 1.5 1.755 2.595 3.302 2.631-1.21 1.004-2.734 1.602-4.39 1.599-0.285-0.001-0.567-0.019-0.843-0.055 1.564 1.073 3.423 1.698 5.419 1.699 6.502 0.002 10.058-5.657 10.058-10.565 0-0.161-0.004-0.321-0.010-0.481 0.691-0.515 1.29-1.16 1.764-1.897-0.634 0.286-1.315 0.476-2.030 0.555 0.73-0.449 1.29-1.168 1.554-2.030-0.683 0.414-1.44 0.711-2.245 0.866z"/> 
    </symbol></svg>